<svg width="118" height="85" viewBox="0 0 118 85" fill="none" xmlns="http://www.w3.org/2000/svg">
<g filter="url(#filter0_d_139_13)">
<path d="M25.6477 28.1295C26.5766 27.1056 26.9597 26.6482 27.3792 26.2274C35.5818 18.0669 43.7641 9.88609 52.0273 1.78671C52.8093 1.02209 54.0862 0.336242 55.1375 0.331609C68.7364 0.283334 82.3349 0.364957 95.9375 0.418178C96.2014 0.419052 96.8549 0.421219 97.4638 0.423238L62.5235 35.2217L103.978 76.5369L102.692 76.5326C102.839 77.4221 101.307 76.528 100.617 76.5258C68.005 76.4176 35.3954 76.3095 2.78859 76.2014C-0.00419419 76.1921 -0.00825929 76.1921 0.000866015 73.4399C0.0789291 49.8961 0.157019 26.3441 0.235136 2.78408C0.244369 -0.000590565 0.244383 -0.00465168 2.98441 0.000373967C8.33184 0.0181042 13.6779 0.0358299 19.0226 0.0535511C22.0468 0.0635782 22.0346 0.0635373 22.0248 3.01869C21.9703 19.4615 21.9158 35.907 21.8612 52.3552C21.8521 55.1114 21.8521 55.1114 24.6693 55.1167C33.2614 55.1452 41.8549 55.1737 50.4497 55.2022C51.1561 55.2046 51.8626 55.1419 53.0278 55.089L25.6477 28.1295ZM67.1478 60.7011L66.133 60.6978L16.2485 60.5324L16.4197 8.89831C16.4308 5.56158 16.4308 5.56158 13.1833 5.54676C11.5596 5.54137 9.93556 5.64559 8.31233 5.49407C6.28332 5.29656 5.65182 5.99267 5.65302 8.07916C5.66396 28.043 5.56527 48.0105 5.50314 67.974C5.49446 70.5923 5.49442 70.6044 8.19384 70.6134C34.3789 70.7002 60.564 70.7776 86.7491 70.8454L89.1116 70.8533L89.8301 70.8557L54.6077 35.2401L83.7444 6.20694C83.3225 6.08708 82.8928 5.99614 82.4585 5.93476C73.934 5.9065 65.4096 5.84982 56.8849 5.90274C56.1339 5.90025 55.2593 6.46566 54.6648 7.02387C50.6819 10.8873 46.7881 14.8404 42.8255 18.7242C39.8892 21.6006 36.8881 24.416 33.7321 27.4378L67.1478 60.7011Z" fill="#2B8EE8"/>
</g>
<defs>
<filter id="filter0_d_139_13" x="0" y="0" width="118" height="84.939" filterUnits="userSpaceOnUse" color-interpolation-filters="sRGB">
<feFlood flood-opacity="0" result="BackgroundImageFix"/>
<feColorMatrix in="SourceAlpha" type="matrix" values="0 0 0 0 0 0 0 0 0 0 0 0 0 0 0 0 0 0 127 0" result="hardAlpha"/>
<feOffset dx="10" dy="4"/>
<feGaussianBlur stdDeviation="2"/>
<feComposite in2="hardAlpha" operator="out"/>
<feColorMatrix type="matrix" values="0 0 0 0 0 0 0 0 0 0 0 0 0 0 0 0 0 0 0.25 0"/>
<feBlend mode="normal" in2="BackgroundImageFix" result="effect1_dropShadow_139_13"/>
<feBlend mode="normal" in="SourceGraphic" in2="effect1_dropShadow_139_13" result="shape"/>
</filter>
</defs>
</svg>
