<svg width="101" height="81" viewBox="0 0 101 81" fill="none" xmlns="http://www.w3.org/2000/svg">
<g filter="url(#filter0_d_125_39)">
<path d="M22.5574 26.7367C23.3762 25.7579 23.7138 25.3207 24.0837 24.9184C31.3167 17.1152 38.5318 9.29265 45.8186 1.54748C46.5082 0.816298 47.6359 0.158617 48.566 0.15088C60.5971 0.0618992 72.6282 0.0967194 84.6628 0.104457C84.8963 0.104457 85.4745 0.104457 86.0132 0.104457L55.2029 33.3792L92 72.6235H90.8615C90.9942 73.4707 89.6369 72.6235 89.0264 72.6235C60.1733 72.6235 31.3227 72.6235 2.47446 72.6235C0.00359657 72.6235 0 72.6235 0 70.0005C0 47.5619 0 25.1157 0 2.66168C0 0.00773923 0 0.00386871 2.42417 0C7.1552 0 11.885 0 16.6137 0C19.2892 0 19.2785 -5.11899e-07 19.2785 2.81642C19.2785 18.4873 19.2785 34.1607 19.2785 49.8367C19.2785 52.4636 19.2785 52.4636 21.7709 52.4597C29.3726 52.4597 36.9755 52.4597 44.5796 52.4597C45.2045 52.4597 45.8294 52.3978 46.8601 52.3437L22.5574 26.7367ZM59.3689 57.6477H58.471H14.3367V8.43766C14.3367 5.25758 14.3367 5.25758 11.4636 5.25371C10.0271 5.25371 8.59055 5.35817 7.154 5.21889C5.35832 5.03706 4.80166 5.70248 4.80884 7.691C4.87708 26.7173 4.84835 45.7475 4.85194 64.7738C4.85194 67.2692 4.85194 67.2808 7.24019 67.2808C30.4069 67.2808 53.5736 67.2717 76.7403 67.2537H78.8305H79.4661L48.1997 33.4218L73.8923 5.65993C73.5187 5.54703 73.1383 5.46172 72.7539 5.40459C65.212 5.40459 57.6702 5.37751 50.1283 5.45489C49.4639 5.45489 48.6917 5.99651 48.1674 6.53039C44.655 10.225 41.2217 14.0047 37.7273 17.7187C35.1379 20.4694 32.4911 23.162 29.7078 26.0519L59.3689 57.6477Z" fill="#2B8EE8"/>
</g>
<defs>
<filter id="filter0_d_125_39" x="0" y="0" width="101" height="81" filterUnits="userSpaceOnUse" color-interpolation-filters="sRGB">
<feFlood flood-opacity="0" result="BackgroundImageFix"/>
<feColorMatrix in="SourceAlpha" type="matrix" values="0 0 0 0 0 0 0 0 0 0 0 0 0 0 0 0 0 0 127 0" result="hardAlpha"/>
<feOffset dx="5" dy="4"/>
<feGaussianBlur stdDeviation="2"/>
<feComposite in2="hardAlpha" operator="out"/>
<feColorMatrix type="matrix" values="0 0 0 0 0 0 0 0 0 0 0 0 0 0 0 0 0 0 0.25 0"/>
<feBlend mode="normal" in2="BackgroundImageFix" result="effect1_dropShadow_125_39"/>
<feBlend mode="normal" in="SourceGraphic" in2="effect1_dropShadow_125_39" result="shape"/>
</filter>
</defs>
</svg>
