<svg width="489" height="374" viewBox="0 0 489 374" fill="none" xmlns="http://www.w3.org/2000/svg">
<path d="M67.1139 176.206C75.9255 160.161 102.319 150.73 100.061 132.607C97.4894 111.974 69.1104 104.133 56.0662 87.553C47.732 76.9595 41.7474 65.0049 37.0447 52.5084C30.8695 36.0993 39.4194 11.1561 23.9352 2.17238C16.5504 -2.11214 8.42078 0.618706 0 4.52085L1.29367 245.507C18.1754 242.2 36.1871 239.091 48.0074 227.391C61.2003 214.332 58.2489 192.348 67.1139 176.206Z" fill="#2F80ED"/>
<path fill-rule="evenodd" clip-rule="evenodd" d="M409.038 245.507C430.136 244.515 447.55 257.143 462.139 271.087C476.896 285.191 491.676 301.931 488.587 321.538C485.508 341.09 466.352 353.986 447.578 363.538C429.948 372.507 409.95 376.954 391.042 371.165C371.314 365.126 355.418 351.34 348.493 333.203C341.293 314.346 343.001 293.169 354.76 276.136C366.769 258.742 386.898 246.548 409.038 245.507Z" fill="#2F80ED"/>
</svg>
